# xmcd
#
# Track frame offsets: 
#        150
#        40317
#        53396
#        66228
#        80386
#        93033
#        106785
#        120846
#        132515
#        146010
#        158110
#        172026
#        186371
#        199507
#        213980
#        227923
#        240408
#        254666
#        283203
#        296355
#
# Disc length: 4135 seconds
#
# Revision: 1
# Processed by: cddbd v1.5.1PL0 Copyright (c) Steve Scherf et al.
# Submitted via: ExactAudioCopy v0.95a5
#
DISCID=1b102514
DTITLE=Various Artist - Jazz Giants - Classic Combos
DYEAR=1999
DGENRE=Jazz
TTITLE0=Charlie Christian - Swing to Bop (Charlie's Choice)
TTITLE1=Charlie Parker Quartet - Bird's Nest
TTITLE2=Red Norvo - Bughouse
TTITLE3=Sonny Berman Big Eight - Curbstone Shuffle
TTITLE4=Mary Lou Williams' Girl Stars - Boogie Misterioso
TTITLE5=Muggsy Spanier - Big Butter and Egg Man
TTITLE6=New Orleans Rhythm Kings - Wolverine Blues
TTITLE7=Thelonious Monk Quartet - Evidence
TTITLE8=Joe Marsala - Walkin' the Dog
TTITLE9=Oscar Pettiford Quartet - Oscalypso
TTITLE10=Barney Bigard - Caravan
TTITLE11=Woody Herman - Four Men on a Horse
TTITLE12=New Oleans Wanderers - Papa Dip
TTITLE13=Frankie Newton - The World is Waiting for the Sunrise
TTITLE14=Coleman Hawkins - Half Step Down, Please
TTITLE15=Roy Eldridge - Muskrat Ramble
TTITLE16=Sir Charles Thompson - Takin' Off
TTITLE17=Miles Davies Sextet - The Chase
TTITLE18=Kenny Clarke - Epistrophy
TTITLE19=Wardell Gray Quartet - Easy Swing
EXTD=YEAR: 1999
EXTT0=
EXTT1=
EXTT2=
EXTT3=
EXTT4=
EXTT5=
EXTT6=
EXTT7=
EXTT8=
EXTT9=
EXTT10=
EXTT11=
EXTT12=
EXTT13=
EXTT14=
EXTT15=
EXTT16=
EXTT17=
EXTT18=
EXTT19=
PLAYORDER=
